<?xml version="1.0" encoding="utf-8"?>
<!-- Generator: Adobe Illustrator 24.3.0, SVG Export Plug-In . SVG Version: 6.00 Build 0)  -->
<svg version="1.1" id="Layer_1" xmlns="http://www.w3.org/2000/svg" xmlns:xlink="http://www.w3.org/1999/xlink" x="0px" y="0px"
	 viewBox="0 0 600 200" style="enable-background:new 0 0 600 200;" xml:space="preserve">
<style type="text/css">
	.st0{fill:#FEE452;}
	.st1{fill:#536DFE;}
	.st2{fill:#29A9E0;}
	.st3{fill:#16DE12;}
	.st4{fill:#E08DE3;}
</style>
<g id="Text">
	<path d="M210.8,166.4c-0.9,0-1.7-0.2-2.3-0.5c-0.6-0.3-1.1-0.7-1.5-1.2c-0.4-0.5-0.6-1.1-0.8-1.7c-0.2-0.6-0.2-1.2-0.2-1.8
		c0-0.7,0.1-1.4,0.3-2.1c0.2-0.7,0.6-1.3,1.1-1.9c0.5-0.6,1.1-1,1.8-1.4s1.5-0.5,2.5-0.5c0.8,0,1.5,0.1,2.1,0.3
		c0.6,0.2,1.1,0.5,1.5,0.8c0.4,0.3,0.8,0.6,1,0.9l-1.6,1.7c-0.2-0.3-0.5-0.6-0.8-0.8s-0.6-0.5-1-0.6s-0.8-0.2-1.4-0.2
		c-0.6,0-1.1,0.1-1.5,0.3c-0.4,0.2-0.8,0.5-1,0.8s-0.5,0.8-0.6,1.2s-0.2,0.9-0.2,1.4c0,0.6,0.1,1.1,0.3,1.5c0.2,0.5,0.5,0.8,0.8,1.1
		s0.8,0.4,1.4,0.4c0.7,0,1.3-0.2,1.7-0.5c0.4-0.3,0.8-0.8,0.9-1.4c-0.4,0-0.7,0.1-1.1,0.1c-0.3,0-0.6,0.1-0.9,0.1l-0.2-2.1
		c0.5-0.1,1.1-0.2,1.8-0.3c0.7-0.1,1.3-0.1,1.9-0.1c0.8,0,1.5,0.1,1.9,0.2l-0.1,2.1c-0.2-0.1-0.5-0.1-0.9-0.1c0,0.2,0,0.4,0,0.6
		c0,0.2,0,0.4,0,0.6c0,0.6,0,1.2,0,1.8c0,0.6,0,1-0.1,1.4l-2.2-0.1c0-0.1,0-0.3,0-0.5c0-0.2,0-0.5,0.1-0.8c-0.3,0.3-0.7,0.6-1.1,0.8
		S211.5,166.4,210.8,166.4z"/>
	<path d="M221.9,166.8c-0.8,0-1.6-0.2-2.2-0.5s-1.1-0.8-1.5-1.4c-0.3-0.6-0.5-1.2-0.5-2c0-0.5,0.1-0.9,0.2-1.4
		c0.2-0.5,0.4-1,0.8-1.4c0.3-0.4,0.8-0.8,1.4-1.1c0.6-0.3,1.3-0.4,2.1-0.4c0.6,0,1.1,0.1,1.5,0.2c0.4,0.1,0.7,0.3,1,0.5
		c0.3,0.2,0.4,0.4,0.6,0.7s0.2,0.5,0.3,0.7s0.1,0.4,0.1,0.5c0,0.8-0.4,1.5-1.1,1.9c-0.7,0.5-1.7,0.7-3,0.7c-0.3,0-0.6,0-0.8,0
		c-0.3,0-0.5-0.1-0.7-0.1c0.2,0.4,0.4,0.7,0.8,1c0.4,0.2,0.8,0.3,1.2,0.3c0.6,0,1.1-0.1,1.6-0.3c0.4-0.2,0.9-0.5,1.3-1l1.2,1.7
		c-0.3,0.2-0.6,0.5-0.9,0.7c-0.3,0.2-0.8,0.4-1.2,0.6C223.2,166.7,222.6,166.8,221.9,166.8z M222.2,160.6c-0.5,0-1,0.1-1.3,0.4
		c-0.4,0.3-0.7,0.6-0.9,1c0.2,0,0.4,0.1,0.6,0.1s0.4,0,0.6,0c0.2,0,0.4,0,0.7-0.1c0.2,0,0.5-0.1,0.7-0.2c0.2-0.1,0.4-0.2,0.6-0.3
		c0.2-0.1,0.2-0.2,0.2-0.4c0-0.1,0-0.2-0.1-0.3c-0.1-0.1-0.2-0.2-0.4-0.3C222.8,160.6,222.5,160.6,222.2,160.6z"/>
	<path d="M230.8,166.8c-0.5,0-0.9-0.1-1.2-0.3s-0.5-0.5-0.7-0.9c-0.1-0.4-0.2-0.8-0.3-1.3c0-0.5-0.1-1-0.1-1.6c0-0.6,0-1.2,0.1-1.8
		c-0.6,0.1-1.1,0.2-1.7,0.3l-0.4-2c0.7-0.2,1.5-0.3,2.3-0.4c0.1-0.4,0.1-0.9,0.2-1.4c0.1-0.5,0.1-1,0.2-1.5l2.2,0.2
		c-0.1,0.4-0.2,0.9-0.3,1.3c-0.1,0.4-0.1,0.9-0.2,1.3c0.5,0,0.9,0,1.4,0s0.8,0.1,1.2,0.1l-0.3,2c-0.3,0-0.6-0.1-0.9-0.1s-0.6,0-1,0
		c-0.2,0-0.4,0-0.6,0c-0.1,0.6-0.1,1.2-0.1,1.6s0,0.8,0,1c0,0.5,0,0.8,0.1,1c0.1,0.2,0.1,0.3,0.3,0.3c0.1,0,0.3,0,0.5-0.1
		c0.2-0.1,0.4-0.2,0.5-0.4s0.3-0.4,0.4-0.6l1,2.1C232.7,166.4,231.8,166.8,230.8,166.8z"/>
	<path d="M240.3,166.8c-0.7,0-1.3-0.6-1.8-1.7c-0.2-0.4-0.3-0.8-0.5-1.3c-0.1-0.5-0.2-1-0.3-1.4c-0.1-0.5-0.2-1-0.2-1.4
		c-0.1-0.5-0.1-0.9-0.1-1.2c0-0.3-0.1-0.6-0.1-0.8l2.1-0.5c0.1,2,0.3,3.4,0.5,4.5c0.2,1,0.4,1.5,0.5,1.5c0.1,0,0.1-0.1,0.2-0.4
		c0.1-0.2,0.2-0.6,0.3-1c0.1-0.4,0.2-0.8,0.3-1.3s0.2-1,0.3-1.5c-0.1-0.6-0.2-1.1-0.2-1.5l2.2-0.1v0.2c0,0.4,0,0.8,0.1,1.2
		c0.1,0.5,0.1,1,0.2,1.5s0.2,1,0.3,1.4c0.1,0.4,0.2,0.8,0.3,1c0.1,0.3,0.2,0.4,0.2,0.4c0.1,0,0.1-0.1,0.2-0.3s0.2-0.6,0.3-1
		c0.1-0.4,0.2-0.9,0.4-1.4s0.2-1.1,0.3-1.7c0.1-0.6,0.2-1.2,0.3-1.7l2.1,0.5c-0.1,0.8-0.3,1.6-0.5,2.4c-0.2,0.8-0.4,1.6-0.6,2.2
		c-0.2,0.7-0.4,1.3-0.7,1.7c-0.5,1-1.1,1.5-1.8,1.5c-0.2,0-0.5-0.1-0.8-0.2c-0.3-0.1-0.6-0.4-0.8-0.9c-0.1-0.2-0.2-0.4-0.3-0.6
		c-0.1-0.2-0.2-0.5-0.2-0.8c-0.1,0.3-0.2,0.6-0.3,0.9C241.6,166.3,241,166.8,240.3,166.8z"/>
	<path d="M252.4,166.8c-0.6,0-1.2-0.2-1.8-0.5c-0.5-0.3-0.9-0.8-1.2-1.3c-0.3-0.6-0.5-1.2-0.5-1.9c0-0.7,0.1-1.2,0.4-1.8
		s0.6-1,1-1.4s0.9-0.7,1.4-0.9c0.5-0.2,1.1-0.3,1.7-0.3c0.5,0,1,0.1,1.4,0.2c0-0.2,0.1-0.4,0.1-0.5l2.2,0.4
		c-0.1,0.2-0.1,0.4-0.2,0.7c-0.1,0.3-0.1,0.7-0.1,1.1c0,0.4-0.1,0.8-0.1,1.2s0,0.8,0,1.1c0,0.3,0,0.5,0.1,0.8c0,0.3,0.1,0.5,0.3,0.6
		c0.1,0.2,0.3,0.2,0.6,0.2h0.2l-0.3,2.2c-0.6,0-1-0.1-1.4-0.3c-0.4-0.2-0.7-0.5-0.9-0.8c-0.4,0.4-0.8,0.7-1.3,0.8
		C253.4,166.7,253,166.8,252.4,166.8z M251.1,163.3c0,0.4,0.2,0.7,0.5,1c0.3,0.2,0.7,0.4,1.1,0.4c0.4,0,0.8-0.1,1.1-0.4
		c0.3-0.2,0.5-0.6,0.7-1c0-0.1,0-0.3,0-0.4c0-0.3,0-0.6,0-0.9c0-0.3,0-0.6,0.1-0.9c-0.4-0.1-0.7-0.2-1.1-0.2c-0.5,0-0.9,0.1-1.2,0.3
		c-0.4,0.2-0.7,0.4-0.9,0.8c-0.2,0.3-0.3,0.7-0.3,1.1c0,0.1,0,0.1,0,0.2S251.1,163.3,251.1,163.3z"/>
	<path d="M261.2,166.8c-0.5,0-0.9-0.1-1.2-0.3c-0.3-0.2-0.5-0.5-0.7-0.8s-0.3-0.8-0.4-1.2s-0.1-0.9-0.2-1.5c0-0.5,0-1,0-1.6
		c0-0.5,0-1,0-1.5c0-0.5,0.1-1.1,0.1-1.7c0-0.6,0.1-1.1,0.1-1.6s0.1-0.9,0.1-1.3l2.3,0c-0.1,0.4-0.1,0.9-0.2,1.5
		c-0.1,0.6-0.1,1.1-0.1,1.7c0,0.6-0.1,1.1-0.1,1.6c0,0.5,0,0.9,0,1.2c0,0.8,0,1.4,0,1.8c0,0.4,0.1,0.8,0.1,1
		c0.1,0.2,0.2,0.3,0.3,0.3c0.1,0,0.3-0.1,0.5-0.3c0.2-0.2,0.3-0.4,0.5-0.6l1.1,2.2c-0.3,0.3-0.6,0.6-1,0.8
		C262.2,166.7,261.7,166.8,261.2,166.8z"/>
	<path d="M267.1,166.8c-0.5,0-0.9-0.1-1.2-0.3c-0.3-0.2-0.5-0.5-0.7-0.8s-0.3-0.8-0.4-1.2s-0.1-0.9-0.2-1.5c0-0.5,0-1,0-1.6
		c0-0.5,0-1,0-1.5c0-0.5,0.1-1.1,0.1-1.7c0-0.6,0.1-1.1,0.1-1.6s0.1-0.9,0.1-1.3l2.3,0c-0.1,0.4-0.1,0.9-0.2,1.5
		c-0.1,0.6-0.1,1.1-0.1,1.7c0,0.6-0.1,1.1-0.1,1.6c0,0.5,0,0.9,0,1.2c0,0.8,0,1.4,0,1.8c0,0.4,0.1,0.8,0.1,1
		c0.1,0.2,0.2,0.3,0.3,0.3c0.1,0,0.3-0.1,0.5-0.3c0.2-0.2,0.3-0.4,0.5-0.6l1.1,2.2c-0.3,0.3-0.6,0.6-1,0.8
		C268.1,166.7,267.7,166.8,267.1,166.8z"/>
	<path d="M270.7,169.5c-0.1-0.7-0.1-1.4-0.1-2.1s0-1.5,0-2.4c0-1.1,0-2.2,0.1-3.3c0-1.1,0.1-2.1,0.2-3l2.2,0.1c0,0.2,0,0.4-0.1,0.6
		c0.3-0.2,0.6-0.4,1-0.5s0.7-0.1,1.1-0.1c0.5,0,0.9,0.1,1.4,0.2s0.9,0.4,1.2,0.7c0.4,0.3,0.6,0.7,0.9,1.2c0.2,0.5,0.3,1.1,0.3,1.8
		c0,0.7-0.1,1.3-0.3,1.8c-0.2,0.5-0.5,1-0.9,1.3c-0.4,0.3-0.8,0.6-1.2,0.8c-0.4,0.2-0.9,0.3-1.4,0.3c-0.9,0-1.6-0.3-2.3-0.8
		c0,0.6,0,1.1,0.1,1.6c0,0.5,0.1,1,0.1,1.6L270.7,169.5z M274.6,160.9c-0.9,0-1.5,0.4-1.9,1.3c0,0.5,0,1-0.1,1.6
		c0.2,0.3,0.5,0.5,0.8,0.7s0.7,0.3,1.3,0.3c1.2,0,1.8-0.7,1.8-2.1c0-0.4-0.1-0.7-0.2-0.9c-0.1-0.2-0.3-0.4-0.5-0.5
		c-0.2-0.1-0.4-0.2-0.6-0.3C275,160.9,274.8,160.9,274.6,160.9z"/>
	<path d="M282.9,166.8c-0.6,0-1.2-0.2-1.8-0.5c-0.5-0.3-0.9-0.8-1.2-1.3c-0.3-0.6-0.5-1.2-0.5-1.9c0-0.7,0.1-1.2,0.4-1.8
		s0.6-1,1-1.4s0.9-0.7,1.4-0.9c0.5-0.2,1.1-0.3,1.7-0.3c0.5,0,1,0.1,1.4,0.2c0-0.2,0.1-0.4,0.1-0.5l2.2,0.4
		c-0.1,0.2-0.1,0.4-0.2,0.7c-0.1,0.3-0.1,0.7-0.1,1.1c0,0.4-0.1,0.8-0.1,1.2s0,0.8,0,1.1c0,0.3,0,0.5,0.1,0.8c0,0.3,0.1,0.5,0.3,0.6
		c0.1,0.2,0.3,0.2,0.6,0.2h0.2l-0.3,2.2c-0.6,0-1-0.1-1.4-0.3c-0.4-0.2-0.7-0.5-0.9-0.8c-0.4,0.4-0.8,0.7-1.3,0.8
		C283.9,166.7,283.4,166.8,282.9,166.8z M281.6,163.3c0,0.4,0.2,0.7,0.5,1c0.3,0.2,0.7,0.4,1.1,0.4c0.4,0,0.8-0.1,1.1-0.4
		c0.3-0.2,0.5-0.6,0.7-1c0-0.1,0-0.3,0-0.4c0-0.3,0-0.6,0-0.9c0-0.3,0-0.6,0.1-0.9c-0.4-0.1-0.7-0.2-1.1-0.2c-0.5,0-0.9,0.1-1.2,0.3
		c-0.4,0.2-0.7,0.4-0.9,0.8c-0.2,0.3-0.3,0.7-0.3,1.1c0,0.1,0,0.1,0,0.2S281.6,163.3,281.6,163.3z"/>
	<path d="M289.2,169.5c-0.1-0.7-0.1-1.4-0.1-2.1s0-1.5,0-2.4c0-1.1,0-2.2,0.1-3.3c0-1.1,0.1-2.1,0.2-3l2.2,0.1c0,0.2,0,0.4-0.1,0.6
		c0.3-0.2,0.6-0.4,1-0.5s0.7-0.1,1.1-0.1c0.5,0,0.9,0.1,1.4,0.2s0.9,0.4,1.2,0.7c0.4,0.3,0.6,0.7,0.9,1.2c0.2,0.5,0.3,1.1,0.3,1.8
		c0,0.7-0.1,1.3-0.3,1.8c-0.2,0.5-0.5,1-0.9,1.3c-0.4,0.3-0.8,0.6-1.2,0.8c-0.4,0.2-0.9,0.3-1.4,0.3c-0.9,0-1.6-0.3-2.3-0.8
		c0,0.6,0,1.1,0.1,1.6c0,0.5,0.1,1,0.1,1.6L289.2,169.5z M293.2,160.9c-0.9,0-1.5,0.4-1.9,1.3c0,0.5,0,1-0.1,1.6
		c0.2,0.3,0.5,0.5,0.8,0.7s0.7,0.3,1.3,0.3c1.2,0,1.8-0.7,1.8-2.1c0-0.4-0.1-0.7-0.2-0.9c-0.1-0.2-0.3-0.4-0.5-0.5
		c-0.2-0.1-0.4-0.2-0.6-0.3C293.5,160.9,293.3,160.9,293.2,160.9z"/>
	<path d="M302.1,166.8c-0.8,0-1.6-0.2-2.2-0.5s-1.1-0.8-1.5-1.4c-0.3-0.6-0.5-1.2-0.5-2c0-0.5,0.1-0.9,0.2-1.4
		c0.2-0.5,0.4-1,0.8-1.4c0.3-0.4,0.8-0.8,1.4-1.1c0.6-0.3,1.3-0.4,2.1-0.4c0.6,0,1.1,0.1,1.5,0.2c0.4,0.1,0.7,0.3,1,0.5
		s0.4,0.4,0.6,0.7s0.2,0.5,0.3,0.7c0,0.2,0.1,0.4,0.1,0.5c0,0.8-0.4,1.5-1.1,1.9c-0.7,0.5-1.7,0.7-3,0.7c-0.3,0-0.6,0-0.8,0
		c-0.3,0-0.5-0.1-0.7-0.1c0.2,0.4,0.4,0.7,0.8,1c0.4,0.2,0.8,0.3,1.2,0.3c0.6,0,1.1-0.1,1.6-0.3c0.4-0.2,0.9-0.5,1.3-1l1.2,1.7
		c-0.3,0.2-0.6,0.5-0.9,0.7c-0.3,0.2-0.8,0.4-1.2,0.6C303.5,166.7,302.9,166.8,302.1,166.8z M302.4,160.6c-0.5,0-1,0.1-1.3,0.4
		c-0.4,0.3-0.7,0.6-0.9,1c0.2,0,0.4,0.1,0.6,0.1c0.2,0,0.4,0,0.6,0c0.2,0,0.4,0,0.7-0.1c0.2,0,0.5-0.1,0.7-0.2
		c0.2-0.1,0.4-0.2,0.6-0.3c0.2-0.1,0.2-0.2,0.2-0.4c0-0.1,0-0.2-0.1-0.3s-0.2-0.2-0.4-0.3C303,160.6,302.8,160.6,302.4,160.6z"/>
	<path d="M307.1,166.8c0-0.7,0.1-1.4,0.1-2.1c0-0.7,0-1.4,0-2.1c0-0.6,0-1.3,0-1.9c0-0.6,0-1.2-0.1-1.8l2.2-0.1c0,0.3,0,0.6,0,1
		c0.3-0.3,0.6-0.6,1-0.8c0.4-0.2,0.8-0.3,1.3-0.3c0.2,0,0.4,0,0.7,0.1c0.3,0.1,0.6,0.2,0.9,0.3l-0.2,2.2c-0.2-0.1-0.4-0.2-0.7-0.3
		c-0.2-0.1-0.5-0.1-0.6-0.1c-0.6,0-1,0.2-1.4,0.7c-0.4,0.5-0.6,1.2-0.8,2.1c0,0.6,0,1.2,0,1.7c0,0.5,0,1-0.1,1.5H307.1z"/>
	<path d="M317.4,166.9c-0.6,0-1.1-0.1-1.6-0.2s-1-0.3-1.4-0.5c-0.4-0.2-0.8-0.4-1.1-0.7l1.2-1.9c0.4,0.3,0.7,0.6,1,0.8
		c0.3,0.2,0.7,0.3,1.1,0.4c0.4,0.1,0.8,0.1,1.2,0.1c0.4,0,0.7,0,0.9-0.1c0.2-0.1,0.3-0.2,0.3-0.4c0-0.1-0.1-0.2-0.3-0.3
		s-0.5-0.1-0.8-0.2c-0.3-0.1-0.7-0.1-1.1-0.2c-0.5-0.1-1-0.3-1.5-0.5c-0.5-0.2-0.8-0.4-1.1-0.7c-0.3-0.3-0.4-0.7-0.4-1.2
		c0-0.4,0.1-0.8,0.3-1.1c0.2-0.3,0.5-0.6,0.8-0.8c0.3-0.2,0.7-0.4,1.1-0.5c0.4-0.1,0.9-0.2,1.3-0.2c0.8,0,1.4,0.1,2,0.3
		s1.1,0.4,1.6,0.7l-1.2,1.8c-0.3-0.2-0.6-0.3-0.9-0.5c-0.3-0.1-0.7-0.2-1-0.3s-0.6-0.1-0.9-0.1c-0.3,0-0.6,0-0.7,0.1
		c-0.2,0.1-0.3,0.2-0.3,0.4c0,0.1,0.1,0.2,0.3,0.3c0.2,0.1,0.6,0.2,1.3,0.4c0.4,0.1,0.8,0.2,1.2,0.3c0.4,0.1,0.8,0.2,1.2,0.4
		c0.4,0.2,0.7,0.4,0.9,0.7c0.2,0.3,0.3,0.7,0.3,1.2c0,0.8-0.3,1.5-1,1.9C319.5,166.6,318.6,166.9,317.4,166.9z"/>
	<path d="M328,166.8c-0.7,0-1.3-0.6-1.8-1.7c-0.2-0.4-0.3-0.8-0.5-1.3c-0.1-0.5-0.2-1-0.3-1.4c-0.1-0.5-0.2-1-0.2-1.4
		c-0.1-0.5-0.1-0.9-0.1-1.2c0-0.3-0.1-0.6-0.1-0.8l2.1-0.5c0.1,2,0.3,3.4,0.5,4.5c0.2,1,0.4,1.5,0.5,1.5c0.1,0,0.1-0.1,0.2-0.4
		c0.1-0.2,0.2-0.6,0.3-1c0.1-0.4,0.2-0.8,0.3-1.3s0.2-1,0.3-1.5c-0.1-0.6-0.2-1.1-0.2-1.5l2.2-0.1v0.2c0,0.4,0,0.8,0.1,1.2
		c0.1,0.5,0.1,1,0.2,1.5c0.1,0.5,0.2,1,0.3,1.4c0.1,0.4,0.2,0.8,0.3,1c0.1,0.3,0.2,0.4,0.2,0.4c0.1,0,0.1-0.1,0.2-0.3s0.2-0.6,0.3-1
		c0.1-0.4,0.2-0.9,0.4-1.4c0.1-0.5,0.2-1.1,0.3-1.7s0.2-1.2,0.3-1.7l2.1,0.5c-0.1,0.8-0.3,1.6-0.5,2.4c-0.2,0.8-0.4,1.6-0.6,2.2
		s-0.4,1.3-0.7,1.7c-0.5,1-1.1,1.5-1.8,1.5c-0.2,0-0.5-0.1-0.8-0.2s-0.6-0.4-0.8-0.9c-0.1-0.2-0.2-0.4-0.3-0.6
		c-0.1-0.2-0.2-0.5-0.2-0.8c-0.1,0.3-0.2,0.6-0.3,0.9C329.3,166.3,328.7,166.8,328,166.8z"/>
	<path d="M336.8,166.7c0-0.5,0-1.1-0.1-1.7c0-0.6,0-1.2,0-1.8c0-0.8,0-1.6,0-2.3c0-0.8,0-1.4,0.1-2.1l2.2,0c0,0.4-0.1,0.9-0.1,1.5
		s0,1.2,0,1.8c0,0.6,0,1.2,0,1.9c0,0.6,0,1.2,0,1.7c0,0.5,0,0.9,0,1.1H336.8z M336.8,157.4c0-0.1,0-0.2,0-0.2c0-0.1,0-0.2,0-0.3
		c0-0.3,0-0.6,0-0.9c0-0.3,0-0.6,0.1-0.8l2.3,0c0,0.3-0.1,0.6-0.1,1c0,0.4,0,0.8-0.1,1.2H336.8z"/>
	<path d="M344.2,166.8c-0.5,0-0.9-0.1-1.2-0.3s-0.5-0.5-0.7-0.9c-0.1-0.4-0.2-0.8-0.3-1.3s-0.1-1-0.1-1.6c0-0.6,0-1.2,0.1-1.8
		c-0.6,0.1-1.1,0.2-1.7,0.3l-0.4-2c0.7-0.2,1.5-0.3,2.3-0.4c0.1-0.4,0.1-0.9,0.2-1.4c0.1-0.5,0.1-1,0.2-1.5l2.2,0.2
		c-0.1,0.4-0.2,0.9-0.3,1.3c-0.1,0.4-0.1,0.9-0.2,1.3c0.5,0,0.9,0,1.4,0s0.8,0.1,1.2,0.1l-0.3,2c-0.3,0-0.6-0.1-0.9-0.1s-0.6,0-1,0
		c-0.2,0-0.4,0-0.6,0c-0.1,0.6-0.1,1.2-0.1,1.6s0,0.8,0,1c0,0.5,0,0.8,0.1,1c0.1,0.2,0.1,0.3,0.3,0.3c0.1,0,0.3,0,0.5-0.1
		c0.2-0.1,0.4-0.2,0.5-0.4s0.3-0.4,0.4-0.6l1,2.1C346.1,166.4,345.2,166.8,344.2,166.8z"/>
	<path d="M347.9,166.7c0-0.5,0-1.2,0-2c0-0.8,0-1.7,0-2.7c0-1,0-2.1,0.1-3.2c0-1.1,0.1-2.2,0.1-3.3l2.2,0c0,0.5-0.1,1.1-0.1,1.8
		c0,0.7-0.1,1.5-0.1,2.3c0.6-0.6,1.3-0.8,2-0.8c0.5,0,1,0.1,1.3,0.3c0.3,0.2,0.6,0.4,0.8,0.7c0.2,0.3,0.4,0.6,0.5,1
		c0.1,0.4,0.2,0.7,0.2,1.1c0,0.3,0.1,0.7,0.1,0.9c0,0.6,0,1.1,0,1.7s0,1.1,0,1.5c0,0.4,0,0.7,0,0.9l-2.3,0c0-0.3,0.1-0.7,0.1-1.2
		c0-0.4,0-0.9,0-1.4c0-0.5,0-0.9,0-1.3c0-1.4-0.3-2.1-1-2.1c-0.2,0-0.4,0.1-0.7,0.2s-0.5,0.3-0.7,0.5c-0.2,0.2-0.4,0.5-0.5,0.9
		c0,0.6,0,1.1,0,1.7c0,0.5,0,1,0,1.4s0,0.9,0,1.3L347.9,166.7z"/>
	<path d="M363.2,166.8c-0.8,0-1.6-0.2-2.2-0.5s-1.1-0.8-1.5-1.4c-0.3-0.6-0.5-1.2-0.5-2c0-0.5,0.1-0.9,0.2-1.4
		c0.2-0.5,0.4-1,0.8-1.4c0.3-0.4,0.8-0.8,1.4-1.1c0.6-0.3,1.3-0.4,2.1-0.4c0.6,0,1.1,0.1,1.5,0.2c0.4,0.1,0.7,0.3,1,0.5
		c0.3,0.2,0.4,0.4,0.6,0.7s0.2,0.5,0.3,0.7c0,0.2,0.1,0.4,0.1,0.5c0,0.8-0.4,1.5-1.1,1.9c-0.7,0.5-1.7,0.7-3,0.7c-0.3,0-0.6,0-0.8,0
		c-0.3,0-0.5-0.1-0.7-0.1c0.2,0.4,0.4,0.7,0.8,1c0.4,0.2,0.8,0.3,1.2,0.3c0.6,0,1.1-0.1,1.6-0.3c0.4-0.2,0.9-0.5,1.3-1l1.2,1.7
		c-0.3,0.2-0.6,0.5-0.9,0.7s-0.8,0.4-1.2,0.6C364.6,166.7,364,166.8,363.2,166.8z M363.5,160.6c-0.5,0-1,0.1-1.3,0.4s-0.7,0.6-0.9,1
		c0.2,0,0.4,0.1,0.6,0.1c0.2,0,0.4,0,0.6,0c0.2,0,0.4,0,0.7-0.1c0.2,0,0.5-0.1,0.7-0.2c0.2-0.1,0.4-0.2,0.6-0.3
		c0.2-0.1,0.2-0.2,0.2-0.4c0-0.1,0-0.2-0.1-0.3c-0.1-0.1-0.2-0.2-0.4-0.3C364.1,160.6,363.9,160.6,363.5,160.6z"/>
	<path d="M371.5,166.8c-0.6,0-1.2-0.2-1.8-0.5c-0.5-0.3-0.9-0.8-1.2-1.3s-0.5-1.2-0.5-1.9c0-0.7,0.1-1.2,0.4-1.8s0.6-1,1-1.4
		s0.9-0.7,1.4-0.9c0.5-0.2,1.1-0.3,1.7-0.3c0.5,0,1,0.1,1.4,0.2c0-0.2,0.1-0.4,0.1-0.5l2.2,0.4c-0.1,0.2-0.1,0.4-0.2,0.7
		c-0.1,0.3-0.1,0.7-0.1,1.1c0,0.4-0.1,0.8-0.1,1.2c0,0.4,0,0.8,0,1.1c0,0.3,0,0.5,0.1,0.8c0,0.3,0.1,0.5,0.3,0.6
		c0.1,0.2,0.3,0.2,0.6,0.2h0.2l-0.3,2.2c-0.6,0-1-0.1-1.4-0.3c-0.4-0.2-0.7-0.5-0.9-0.8c-0.4,0.4-0.8,0.7-1.3,0.8
		C372.5,166.7,372,166.8,371.5,166.8z M370.1,163.3c0,0.4,0.2,0.7,0.5,1c0.3,0.2,0.7,0.4,1.1,0.4c0.4,0,0.8-0.1,1.1-0.4
		c0.3-0.2,0.5-0.6,0.7-1c0-0.1,0-0.3,0-0.4c0-0.3,0-0.6,0-0.9c0-0.3,0-0.6,0.1-0.9c-0.4-0.1-0.7-0.2-1.1-0.2c-0.5,0-0.9,0.1-1.2,0.3
		c-0.4,0.2-0.7,0.4-0.9,0.8c-0.2,0.3-0.3,0.7-0.3,1.1c0,0.1,0,0.1,0,0.2S370.1,163.3,370.1,163.3z"/>
	<path d="M381.5,166.9c-0.6,0-1.1-0.1-1.6-0.2s-1-0.3-1.4-0.5c-0.4-0.2-0.8-0.4-1.1-0.7l1.2-1.9c0.4,0.3,0.7,0.6,1,0.8
		s0.7,0.3,1.1,0.4s0.8,0.1,1.2,0.1c0.4,0,0.7,0,0.9-0.1c0.2-0.1,0.3-0.2,0.3-0.4c0-0.1-0.1-0.2-0.3-0.3c-0.2-0.1-0.5-0.1-0.8-0.2
		c-0.3-0.1-0.7-0.1-1.1-0.2c-0.5-0.1-1-0.3-1.5-0.5s-0.8-0.4-1.1-0.7s-0.4-0.7-0.4-1.2c0-0.4,0.1-0.8,0.3-1.1
		c0.2-0.3,0.5-0.6,0.8-0.8c0.3-0.2,0.7-0.4,1.1-0.5c0.4-0.1,0.9-0.2,1.3-0.2c0.8,0,1.4,0.1,2,0.3s1.1,0.4,1.6,0.7l-1.2,1.8
		c-0.3-0.2-0.6-0.3-0.9-0.5s-0.7-0.2-1-0.3c-0.3-0.1-0.6-0.1-0.9-0.1c-0.3,0-0.6,0-0.7,0.1c-0.2,0.1-0.3,0.2-0.3,0.4
		c0,0.1,0.1,0.2,0.3,0.3c0.2,0.1,0.6,0.2,1.3,0.4c0.4,0.1,0.8,0.2,1.2,0.3c0.4,0.1,0.8,0.2,1.2,0.4c0.4,0.2,0.7,0.4,0.9,0.7
		c0.2,0.3,0.3,0.7,0.3,1.2c0,0.8-0.3,1.5-1,1.9S382.6,166.9,381.5,166.9z"/>
	<path d="M390.1,166.8c-0.8,0-1.6-0.2-2.2-0.5s-1.1-0.8-1.5-1.4c-0.3-0.6-0.5-1.2-0.5-2c0-0.5,0.1-0.9,0.2-1.4
		c0.2-0.5,0.4-1,0.8-1.4c0.3-0.4,0.8-0.8,1.4-1.1c0.6-0.3,1.3-0.4,2.1-0.4c0.6,0,1.1,0.1,1.5,0.2c0.4,0.1,0.7,0.3,1,0.5
		s0.4,0.4,0.6,0.7s0.2,0.5,0.3,0.7c0,0.2,0.1,0.4,0.1,0.5c0,0.8-0.4,1.5-1.1,1.9c-0.7,0.5-1.7,0.7-3,0.7c-0.3,0-0.6,0-0.8,0
		c-0.3,0-0.5-0.1-0.7-0.1c0.2,0.4,0.4,0.7,0.8,1c0.4,0.2,0.8,0.3,1.2,0.3c0.6,0,1.1-0.1,1.6-0.3c0.4-0.2,0.9-0.5,1.3-1l1.2,1.7
		c-0.3,0.2-0.6,0.5-0.9,0.7c-0.3,0.2-0.8,0.4-1.2,0.6C391.5,166.7,390.9,166.8,390.1,166.8z M390.4,160.6c-0.5,0-1,0.1-1.3,0.4
		c-0.4,0.3-0.7,0.6-0.9,1c0.2,0,0.4,0.1,0.6,0.1c0.2,0,0.4,0,0.6,0c0.2,0,0.4,0,0.7-0.1c0.2,0,0.5-0.1,0.7-0.2
		c0.2-0.1,0.4-0.2,0.6-0.3c0.2-0.1,0.2-0.2,0.2-0.4c0-0.1,0-0.2-0.1-0.3s-0.2-0.2-0.4-0.3C391,160.6,390.8,160.6,390.4,160.6z"/>
</g>
<g id="Alpha_Coders">
	<g id="Alpha">
		<g>
			<path class="st0" d="M132.4,80.3c-4-8.9-8.4-13.3-13-13.3c-2.3,0-4.6,1.2-6.9,3.6c-2.4,2.4-4.7,6-7,10.6
				c-2.3,4.6-4.5,10.2-6.7,16.7c-2.1,6.3-4.1,13.4-6.1,21.1l9.3,1.7c0.5-2.3,1.1-4.8,1.8-7.3c0.7-2.8,1.5-5.5,2.3-8.1l0.1-0.4l0.4,0
				c1.9-0.2,3.9-0.4,6.1-0.6c2.2-0.2,4.4-0.3,6.7-0.4c3.7-0.1,7-0.2,9.7-0.1l0.5,0l0.1,0.5c0.6,2.7,1.2,5.5,1.8,8.4
				c0.5,2.7,1,5.3,1.5,7.8l9.7-1.3C139.9,102.3,136.4,89.2,132.4,80.3z M126.4,94.6c-3.3-0.2-6.8-0.1-10.4,0c-2,0.1-3.9,0.2-5.6,0.5
				l-1,0.1l0.3-1c1.6-4.4,2.8-7.5,3.7-9.5c1.2-2.6,2.2-4.4,2.9-5.4c1.7-2.2,3.7-2.3,5.3,0c0.7,1,1.5,2.6,2.4,4.9
				c0.4,0.9,0.9,2.3,1.4,4c0.5,1.7,1.1,3.6,1.7,5.7l0.2,0.9L126.4,94.6z"/>
		</g>
		<g>
			<path class="st0" d="M165.6,106.9c-0.6,0.8-1.2,1.5-1.8,2.2c-1,1-1.9,1.5-2.8,1.5c-0.6,0-1.4-0.3-1.9-1.8
				c-0.3-0.9-0.6-2.5-0.7-4.7c-0.1-2.2-0.2-5.2-0.2-8.9c0-1.3,0-3.1,0.2-5.6c0.1-2.3,0.2-4.9,0.4-7.6c0.2-2.7,0.4-5.5,0.7-8.1
				c0.3-2.5,0.5-4.6,0.8-6.5l-9.9-0.1c-0.2,1.7-0.4,3.6-0.6,5.7c-0.2,2.4-0.4,4.9-0.6,7.7c-0.2,2.7-0.3,5.4-0.5,8
				c-0.1,2.6-0.2,5-0.2,7.2c0,2.5,0.1,5.1,0.2,7.5c0.1,2.5,0.3,4.8,0.7,7c0.4,2.1,1,4,1.8,5.7c0.8,1.6,1.9,2.9,3.3,3.8
				c1.4,0.9,3.1,1.4,5.3,1.4c2.5,0,4.6-0.6,6.3-1.7c1.6-1,3-2.2,4.2-3.5L165.6,106.9z"/>
		</g>
		<g>
			<path class="st0" d="M213.6,93.7c-1-2.3-2.3-4.3-4-5.8c-1.7-1.5-3.6-2.6-5.6-3.3c-3.7-1.2-7.8-1.4-11.5-0.4
				c-1.6,0.4-3.2,1.1-4.6,2.1l-1.1,0.7l0.1-1.3c0.1-0.8,0.1-1.6,0.2-2.4l-9.4-0.3c-0.3,4.2-0.5,8.9-0.7,13.9
				c-0.2,5.2-0.2,10.6-0.2,16c0,4.4,0.1,8.3,0.2,11.6c0.1,3.2,0.3,6.3,0.6,9.3l9.2-0.7c-0.2-2.3-0.4-4.7-0.6-6.9
				c-0.2-2.5-0.3-5.1-0.4-7.7l0-1.4l1.1,0.9c3.1,2.4,6.7,3.6,10.7,3.6c2.2,0,4.4-0.4,6.4-1.2c2.1-0.8,4-2,5.6-3.5c1.7-1.6,3-3.6,4-6
				c1-2.4,1.5-5.3,1.5-8.6C215,98.9,214.5,96.1,213.6,93.7z M196.2,112.4c-2.5,0-4.7-0.5-6.4-1.6c-1.6-1-3-2.2-4-3.6l-0.1-0.2v-0.2
				c0-2.6,0.1-5.2,0.2-7.6L186,99c2.2-4.2,5.5-6.4,9.8-6.4c0.7,0,1.7,0.1,2.8,0.4c1.1,0.2,2.2,0.7,3.2,1.3c1.1,0.6,2,1.6,2.7,2.8
				c0.7,1.2,1.1,2.8,1.1,4.7C205.6,108.9,202.5,112.4,196.2,112.4z"/>
		</g>
		<g>
			<path class="st0" d="M254,97.5c-0.2-1.6-0.6-3.3-1.1-5c-0.5-1.7-1.3-3.2-2.3-4.6c-1-1.4-2.3-2.5-3.8-3.4c-1.6-0.9-3.6-1.3-6-1.3
				c-3.5,0-6.7,1.3-9.4,3.8l-1.1,1l0-1.5c0.1-3.9,0.3-7.6,0.4-11c0.2-3.1,0.3-5.7,0.5-8l-9.3,0.1c-0.2,5.1-0.4,10.3-0.5,15.4
				c-0.1,5.3-0.2,10.4-0.3,15.3c-0.1,4.9-0.1,9.3-0.1,13.2c0,3.6,0,6.6,0,9.1l9.2-0.3c0-1.9-0.1-3.7-0.1-5.5
				c-0.1-2.1-0.1-4.3-0.1-6.6c0-2.6,0-5.2,0.1-8l0-0.2c0.7-1.9,1.5-3.4,2.7-4.5c1.1-1.1,2.3-2,3.5-2.5c1.2-0.5,2.4-0.8,3.4-0.8
				c3.6,0,5.4,3.6,5.4,10.7c0,2,0,4.2,0,6.4c0,2.3-0.1,4.5-0.1,6.6c-0.1,1.8-0.1,3.4-0.3,4.9l9.5,0c0-0.9,0-2.1,0-3.7
				c0-2,0.1-4.4,0.1-7.1c0-2.7,0.1-5.4,0.1-8.1C254.3,100.6,254.2,99.1,254,97.5z"/>
		</g>
		<g>
			<path class="st0" d="M301.6,111.8c-1.5,0-2.6-0.5-3.4-1.4c-0.7-0.8-1.1-2-1.4-3.3c-0.2-1.3-0.3-2.6-0.3-3.9
				c0-1.6,0.1-3.4,0.2-5.3c0.1-2,0.3-3.9,0.5-5.9c0.2-2,0.4-3.8,0.7-5.4c0.2-1.2,0.4-2.2,0.7-2.9l-9.2-1.6c-0.1,0.7-0.2,1.3-0.3,2
				l-0.1,0.7l-0.7-0.2c-4.8-1.4-10.1-1.3-14.6,0.5c-2.5,0.9-4.7,2.3-6.7,4.1c-1.9,1.8-3.5,3.9-4.6,6.3c-1.1,2.4-1.7,5.2-1.7,8.3
				c0,3.2,0.7,6.2,2.1,8.8c1.4,2.6,3.4,4.7,5.8,6.2c2.4,1.5,5.1,2.3,8.1,2.3c2.4,0,4.7-0.3,6.9-1c2.2-0.6,4.1-1.9,5.8-3.8l0.6-0.6
				l0.5,0.7c1,1.5,2.4,2.7,4.1,3.6c1.6,0.8,3.6,1.3,5.9,1.3l1.4-9.5H301.6z M287.9,94.3c-0.1,1.5-0.2,3-0.3,4.5
				c-0.1,1.5-0.1,3-0.1,4.4c0,0.7,0,1.4,0.1,2v0.2l-0.1,0.1c-0.9,2.1-2.2,3.7-3.7,4.9c-1.5,1.2-3.4,1.8-5.7,1.8
				c-2.3,0-4.3-0.6-5.9-1.9c-1.6-1.3-2.5-3-2.7-5.2c0-0.2-0.1-0.5-0.1-0.8v-0.7c0-2.2,0.5-4.1,1.6-5.8c1-1.7,2.5-3,4.4-3.9
				c1.8-0.9,4-1.4,6.3-1.4c2,0,3.9,0.3,5.7,1l0.5,0.2L287.9,94.3z"/>
		</g>
	</g>
	<g id="Coders">
		<g>
			<path class="st1" d="M360.4,99.7c-1,2.3-2.1,4.4-3.3,6.1c-1.3,2-2.9,3.5-4.9,4.6c-1.9,1.1-4.4,1.6-7.4,1.6c-2.7,0-5-0.5-6.8-1.5
				c-1.8-1-3.3-2.3-4.4-4c-1-1.6-1.8-3.5-2.2-5.4c-0.4-1.9-0.6-3.9-0.6-5.9c0-1.8,0.2-3.9,0.6-6.1c0.4-2.2,1.2-4.3,2.3-6.3
				c1.1-2,2.6-3.7,4.5-4.9c1.9-1.3,4.4-2,7.3-2c2.8,0,5.2,0.6,7.1,1.7c1.9,1.1,3.5,2.5,4.8,4.2c1.1,1.4,2.1,2.9,2.9,4.4l7.9-6.1
				c-0.3-0.5-0.7-1.1-1.2-1.9c-0.7-1.1-1.6-2.3-2.8-3.6c-1.1-1.3-2.6-2.5-4.3-3.7c-1.7-1.2-3.8-2.2-6.2-3c-2.4-0.8-5.2-1.2-8.4-1.2
				c-3.7,0-7,0.6-9.7,1.9c-2.7,1.3-5.1,2.9-7,5c-1.9,2.1-3.4,4.4-4.5,6.8c-1.1,2.5-2,5-2.5,7.5c-0.5,2.5-0.8,4.8-0.8,6.8
				c0,5.3,1,10,3,14c2,3.9,4.8,7,8.4,9.1s7.9,3.2,12.9,3.2c4.1,0,7.6-0.7,10.6-2.2c3-1.4,5.6-3.5,7.8-6.2c2.1-2.6,4.1-5.6,5.8-9.1
				L360.4,99.7z"/>
		</g>
		<g>
			<path class="st1" d="M412.2,94.7c-1-2.3-2.4-4.4-4.1-6.1c-1.8-1.7-3.8-3.1-6.2-4c-2.4-1-4.9-1.4-7.7-1.4c-2.6,0-5.1,0.5-7.3,1.4
				c-2.2,0.9-4.2,2.3-5.9,3.9c-1.7,1.7-3,3.7-3.9,5.9c-0.9,2.2-1.4,4.7-1.4,7.4c0,2.6,0.4,5.1,1.1,7.5c0.8,2.4,1.9,4.5,3.5,6.3
				c1.5,1.8,3.5,3.2,5.9,4.3c2.4,1,5.2,1.6,8.4,1.6c6.1,0,10.8-1.7,14.1-5c3.3-3.3,5-8.1,5-14.1C413.7,99.6,413.2,97,412.2,94.7z
				 M402,109.9c-1.7,1.8-4.2,2.8-7.4,2.8c-2.3,0-4.3-0.5-5.8-1.5c-1.5-1-2.6-2.3-3.3-3.9c-0.7-1.6-1-3.2-1-4.8
				c0-1.9,0.5-3.7,1.4-5.2s2.1-2.8,3.6-3.8c1.5-1,3.2-1.4,5-1.4c3,0,5.4,0.9,7.3,2.8c1.8,1.9,2.8,4.3,2.8,7.4
				C404.5,105.4,403.7,108.1,402,109.9z"/>
		</g>
		<g>
			<path class="st1" d="M453.7,77.1c0.2-3.7,0.5-7.2,0.8-10.5l-9.1-0.6c-0.2,2.8-0.4,5.6-0.6,8.4c-0.2,3.1-0.3,6.1-0.5,9.1l0,0.9
				l-0.8-0.3c-1-0.3-2.1-0.6-3.3-0.8c-1.2-0.2-2.4-0.3-3.7-0.3c-2.1,0-4.3,0.4-6.5,1.2c-2.1,0.8-4.1,2-5.9,3.6
				c-1.8,1.6-3.2,3.7-4.2,6.2c-1.1,2.5-1.6,5.5-1.6,9c0,3.1,0.5,5.8,1.4,8c0.9,2.2,2.2,4.1,3.7,5.6c1.6,1.5,3.3,2.6,5.3,3.3
				c3.5,1.3,7.4,1.5,10.5,0.4c1.4-0.5,2.6-1.1,3.8-1.9l1-0.7v1.2c0,0.5,0,1,0,1.6l9.5-0.7c-0.2-2.6-0.3-5.4-0.4-8.4
				c-0.1-3.2-0.2-6.7-0.2-10.4c0-3.9,0.1-8,0.2-12C453.3,85.2,453.5,81.1,453.7,77.1z M444,95.4c-0.1,3.4-0.1,6.9-0.1,10.3v1.7
				l-0.1,0.2c-1.2,1.5-2.5,2.6-4,3.2c-1.4,0.6-2.8,0.9-4.2,0.9c-1.2,0-2.5-0.3-3.7-0.8c-1.3-0.6-2.4-1.5-3.3-2.8
				c-0.9-1.3-1.3-3.1-1.3-5.4c0-2.1,0.3-3.8,1-5.2c0.6-1.3,1.5-2.4,2.5-3.2c1-0.8,2.1-1.3,3.3-1.6c3.8-1,7.1-0.3,10,2.2l0.2,0.2
				V95.4z"/>
		</g>
		<g>
			<path class="st1" d="M492.6,107.6c-1.8,1.9-3.7,3.3-5.8,4.3c-2.2,1-4.8,1.6-7.7,1.6c-2.1,0-4.1-0.5-6-1.5c-2-1-3.4-2.7-4.2-4.9
				l-0.4-1l1.1,0.2c1.1,0.2,2.2,0.3,3.5,0.4c1.2,0.1,2.5,0.2,3.9,0.2c6,0,10.7-1.1,14-3.2c3.2-2.1,4.8-4.9,4.8-8.7
				c0-0.6-0.1-1.4-0.3-2.4c-0.2-0.9-0.6-2-1.2-3c-0.6-1-1.5-2.1-2.6-3c-1.1-0.9-2.7-1.7-4.5-2.3c-1.9-0.6-4.2-0.9-6.9-0.9
				c-3.8,0-7,0.7-9.6,1.9c-2.6,1.3-4.7,2.9-6.3,5c-1.6,2-2.8,4.3-3.5,6.6c-0.7,2.4-1.1,4.6-1.1,6.7c0,3.5,0.8,6.7,2.4,9.3
				c1.6,2.7,3.9,4.8,6.8,6.3c2.9,1.5,6.3,2.3,10.2,2.3c3.4,0,6.3-0.4,8.6-1.1c2.3-0.7,4.3-1.7,5.8-2.8c1.4-1,2.8-2,3.9-3
				L492.6,107.6z M469.2,98.4c0.9-2.1,2.4-3.9,4.4-5.2c2-1.3,4.3-2,6.8-2c1.8,0,3.1,0.2,4.1,0.7c1,0.5,1.7,1,2.1,1.6
				c0.4,0.6,0.6,1.1,0.6,1.6c0,0.9-0.5,1.7-1.4,2.4c-0.8,0.6-1.8,1-3,1.4c-1.2,0.3-2.4,0.6-3.6,0.8c-1.2,0.2-2.3,0.2-3.2,0.2
				c-1,0-2,0-3.1-0.1c-1-0.1-2.1-0.2-3.1-0.4l-0.8-0.1L469.2,98.4z"/>
		</g>
		<g>
			<path class="st1" d="M527.4,83.3c-1.3-0.2-2.4-0.4-3.2-0.4c-2.2,0-4.1,0.5-5.8,1.4c-1.7,1-3.2,2.3-4.5,3.9l-1.1,1.3l-0.1-1.7
				c-0.1-1.4-0.1-2.8-0.2-4.1l-9.1,0.3c0.1,2.5,0.2,5.3,0.3,8.1c0.1,3,0.1,6.1,0.2,9.1c0,3.4,0,6.8-0.1,10.2
				c-0.1,3.3-0.2,6.6-0.3,9.7h9.2c0.2-2,0.2-4.1,0.3-6.5c0.1-2.6,0.1-5.4,0.1-8.3c0.7-4.4,2-7.8,3.9-10.3c2-2.5,4.4-3.8,7.3-3.8
				c0.8,0,1.9,0.1,3.1,0.4c0.9,0.2,1.8,0.5,2.6,0.9l1-9.1C529.7,83.9,528.5,83.5,527.4,83.3z"/>
		</g>
		<g>
			<path class="st1" d="M568.4,104.1c-1-1.3-2.4-2.4-4-3.1c-1.7-0.8-3.6-1.3-5.5-1.8c-2-0.4-3.9-0.9-5.7-1.3c-3-0.7-5.1-1.3-6.2-1.7
				c-0.5-0.2-2-0.8-2-2c0-0.7,0.3-1.8,1.6-2.5c1.8-1,4.9-1,8.4-0.2c1.6,0.4,3.3,0.9,4.9,1.5c1.4,0.6,2.7,1.2,3.8,2l4.9-7.5
				c-2.3-1.3-4.6-2.3-7.1-3.1c-2.6-0.9-5.8-1.3-9.5-1.3c-2.1,0-4.2,0.2-6.1,0.7c-2,0.5-3.7,1.2-5.2,2.2c-1.5,1-2.7,2.2-3.6,3.6
				c-0.9,1.4-1.3,3.1-1.3,4.9c0,2.3,0.6,4.2,1.8,5.5c1.3,1.4,3,2.6,5.1,3.4c2.2,0.9,4.5,1.6,7,2.3c1.8,0.4,3.5,0.8,5,1
				c1.6,0.3,3,0.6,4.1,1c1.3,0.5,2,1.1,2,2.1c0,1-0.7,1.8-2,2.4c-1.2,0.5-2.7,0.8-4.6,0.8c-2.1,0-4.1-0.2-5.9-0.5
				c-1.8-0.3-3.6-1-5.3-1.9c-1.5-0.8-3-1.9-4.6-3.3l-4.9,7.8c1.4,1,2.9,2,4.7,2.9c1.9,1,4,1.8,6.4,2.5c2.3,0.6,4.9,1,7.7,1
				c5.5,0,9.9-1.1,12.9-3.3c3-2.2,4.5-5,4.5-8.8C569.9,107.2,569.4,105.4,568.4,104.1z"/>
		</g>
	</g>
</g>
<g id="Icon">
	<path id="BG" class="st2" d="M76.1,66v28c0,1.3-0.5,2.4-1.4,3.4s-2,1.4-3.4,1.4h-28c-1.3,0-2.4-0.5-3.4-1.4s-1.4-2-1.4-3.4V66
		c0-1.3,0.5-2.4,1.4-3.4s2-1.4,3.4-1.4h28c1.3,0,2.4,0.5,3.4,1.4S76.1,64.7,76.1,66z"/>
	<path id="Mountains" class="st3" d="M42.1,90.8l8.8-8.8c0.2-0.2,0.5-0.2,0.7,0l4.6,4.5c0.2,0.2,0.6,0.2,0.8,0l5.6-7.1
		c0.2-0.3,0.6-0.3,0.8,0l9.2,11.5c0.3,0.3,0,0.8-0.4,0.8H42.5C42,91.7,41.8,91.1,42.1,90.8z"/>
	<path id="Circle" class="st4" d="M47.6,76.4c-0.9,0-1.7-0.3-2.3-1c-0.6-0.6-1-1.4-1-2.3s0.3-1.7,1-2.3c0.6-0.6,1.4-1,2.3-1
		c0.9,0,1.7,0.3,2.3,1s1,1.4,1,2.3s-0.3,1.7-1,2.3S48.5,76.4,47.6,76.4z"/>
</g>
</svg>
