<?xml version="1.0" encoding="utf-8"?>
<!-- Generator: Adobe Illustrator 24.3.0, SVG Export Plug-In . SVG Version: 6.00 Build 0)  -->
<svg version="1.1" id="Layer_1" xmlns="http://www.w3.org/2000/svg" xmlns:xlink="http://www.w3.org/1999/xlink" x="0px" y="0px"
	 viewBox="0 0 48 48" style="enable-background:new 0 0 48 48;" xml:space="preserve">
<style type="text/css">
	.st0{fill:#39A248;}
	.st1{fill:#1D542B;}
</style>
<g id="Open_Soruce_1_">
	<path class="st0" d="M47.3,24.6c0.1,9.9-6,18.3-14.6,21.8c-0.3,0.1-0.6,0-0.7-0.3L27.1,33c-0.1-0.3,0-0.5,0.3-0.6
		c2.9-1.3,4.9-4.2,4.9-7.6c0-4.3-3.7-8-8-8.1c-4.6-0.1-8.4,3.6-8.4,8.2c0,3.3,1.9,6.1,4.8,7.5c0.2,0.1,0.4,0.4,0.3,0.6L15.7,46
		c-0.1,0.3-0.4,0.4-0.7,0.3C6.6,42.7,0.7,34.5,0.7,24.8C0.7,12,11.1,1.6,23.9,1.6C36.8,1.5,47.1,11.8,47.3,24.6z"/>
	<path class="st1" d="M32.5,47.2c-0.2,0-0.3,0-0.5-0.1c-0.3-0.1-0.5-0.4-0.7-0.7l-4.9-13.1c-0.2-0.6,0.1-1.3,0.7-1.6
		c2.7-1.2,4.5-3.9,4.4-6.9c0-3.9-3.4-7.3-7.3-7.4c-2-0.1-4,0.7-5.4,2.1c-1.5,1.4-2.3,3.3-2.3,5.3c0,2.9,1.7,5.6,4.3,6.8
		c0.6,0.3,0.9,1,0.6,1.6l-5.1,13.1c-0.1,0.3-0.4,0.6-0.7,0.7c-0.3,0.1-0.7,0.1-1,0C5.8,43.2,0,34.5,0,24.8c0-6.4,2.5-12.4,7-17
		c4.5-4.5,10.5-7,16.9-7c0,0,0,0,0.1,0c6.4,0,12.4,2.5,16.9,6.9c4.5,4.5,7.1,10.5,7.1,16.9l0,0c0,4.9-1.4,9.7-4.2,13.7
		c-2.7,4-6.5,7-10.9,8.8C32.8,47.2,32.6,47.2,32.5,47.2z M27.8,32.9l4.8,12.7c8.5-3.5,14-11.8,13.9-21C46.4,12.3,36.3,2.3,24,2.3
		c0,0,0,0-0.1,0C11.6,2.3,1.5,12.4,1.5,24.8c0,9,5.3,17.1,13.6,20.7l5-12.6c-3-1.5-5-4.6-5-8c0-2.4,1-4.7,2.7-6.4
		c1.7-1.7,4-2.6,6.5-2.5c4.7,0.1,8.7,4.2,8.7,8.8C33,28.2,31,31.4,27.8,32.9z"/>
</g>
</svg>
